Coordinates
version=1
nRows=17
nColumns=36
inDegrees=yes

Units are S.I. units (second, meters, Newtons, ...)
If the header above contains a line with 'inDegrees', this indicates whether rotational values are in degrees (yes) or radians (no).

endheader
time	pelvis_tilt	pelvis_list	pelvis_rotation	pelvis_tx	pelvis_ty	pelvis_tz	hip_flexion_r	hip_adduction_r	hip_rotation_r	knee_angle_r	knee_angle_r_beta	ankle_angle_r	subtalar_angle_r	mtp_angle_r	hip_flexion_l	hip_adduction_l	hip_rotation_l	knee_angle_l	knee_angle_l_beta	ankle_angle_l	subtalar_angle_l	mtp_angle_l	lumbar_extension	lumbar_bending	lumbar_rotation	arm_flex_r	arm_add_r	arm_rot_r	elbow_flex_r	pro_sup_r	arm_flex_l	arm_add_l	arm_rot_l	elbow_flex_l	pro_sup_l
      1.68333330	      0.27308235	     -0.57963288	     -1.48212770	     -0.04116051	      1.14218297	      0.00533213	     -1.51139370	     -1.23717156	      2.30869413	      1.21190870	      0.02115180	      5.74080213	    -12.57527255	     -7.49999987	      0.93823850	      0.10969607	      2.28385049	      5.81931683	      0.10156624	      0.86768362	    -20.34483100	     -7.49999987	     -3.44818835	     -0.70807497	      1.43259029	      0.84505821	    -10.36452798	     21.61597646	     38.45665221	     72.09373701	      6.85804691	     -9.53964557	     41.90336696	     27.50405364	     61.61431268
      1.70000000	      0.40096872	     -0.59049892	     -1.45554078	     -0.04097304	      1.14345224	      0.00553061	     -1.62114502	     -1.22196561	      2.17907582	      1.23660957	      0.02158291	      5.88505950	    -12.26946593	     -7.49999987	      0.91148325	      0.06426817	      2.03761712	      5.88900379	      0.10278251	      1.29745746	    -19.57805176	     -7.49999987	     -3.70119266	     -0.72350903	      1.32597710	      1.03432074	    -10.31928004	     21.74005964	     38.28879108	     70.86039226	      6.93683213	     -9.51806990	     41.83319110	     27.30883434	     61.30330543
      1.71666670	      0.22195474	     -0.58322968	     -1.41595834	     -0.03830677	      1.14462224	      0.00441708	     -1.42364434	     -1.23967532	      2.32050952	      1.26450637	      0.02206980	      5.69008074	    -12.58620885	     -7.49999987	      1.07581497	      0.07841584	      2.36428346	      5.80085832	      0.10124408	      0.79403956	    -20.36383653	     -7.49999987	     -3.38221448	     -0.72761760	      1.37719811	      0.91851207	    -10.43083878	     22.01816975	     38.25069937	     71.54921489	      6.93686207	     -9.52565774	     42.43995236	     27.32158895	     61.32081833
      1.73333330	      0.38533154	     -0.62809879	     -1.40129725	     -0.03816726	      1.14426362	      0.00462374	     -1.63968321	     -1.20642070	      2.07602184	      1.28622431	      0.02244885	      5.87096191	    -12.11734079	     -7.49999987	      0.88639624	      0.00829923	      2.02238204	      5.83691177	      0.10187333	      1.24351522	    -19.52616703	     -7.49999987	     -3.53650247	     -0.65901751	      1.35725908	      0.92788895	    -10.35622008	     21.70201972	     38.12685260	     70.66717556	      6.85782746	     -9.46089269	     42.05424831	     27.31897639	     61.05830229
      1.75000000	      0.42038468	     -0.65002138	     -1.40869277	     -0.03772544	      1.14453250	      0.00484925	     -1.71765334	     -1.19070273	      2.22724539	      1.31316481	      0.02291905	      5.62399057	    -12.58872095	     -7.49999987	      0.80241585	     -0.00590149	      2.15891847	      5.78337299	      0.10093890	      0.82029024	    -20.08423330	     -7.49999987	     -3.48957350	     -0.60785865	      1.39754531	      0.87787059	    -10.59324921	     22.40933971	     38.42207272	     70.12467563	      6.80758454	     -9.44743145	     42.12635741	     27.37452317	     60.90857806
      1.76666670	      0.32500395	     -0.66564669	     -1.39089091	     -0.03891053	      1.14448683	      0.00524694	     -1.62453558	     -1.17101972	      2.26817299	      1.35405896	      0.02363279	      5.54931758	    -12.71843616	     -7.49999987	      0.91258504	     -0.03120075	      2.16675136	      5.85011591	      0.10210378	      0.69562068	    -20.18239125	     -7.49999987	     -3.27005405	     -0.55885156	      1.42672929	      0.86511497	    -10.55420840	     22.18651618	     38.18698150	     72.14002036	      6.81712949	     -9.52072233	     42.66435001	     27.40040773	     60.95145674
      1.78333330	      0.38681333	     -0.69016358	     -1.32565836	     -0.03867877	      1.14488490	      0.00482149	     -1.72327295	     -1.14552715	      2.10420022	      1.36401998	      0.02380664	      5.61875012	    -12.53830396	     -7.49999987	      0.81958008	     -0.06174635	      2.18680149	      5.83806504	      0.10189346	      0.67794650	    -20.13579438	     -7.49999987	     -3.28588786	     -0.51190913	      1.39743554	      0.79703606	    -10.55343054	     22.08250393	     38.32810667	     72.03831213	      6.78472116	     -9.54791365	     42.48694048	     27.49078807	     60.75442641
      1.80000000	      0.40235569	     -0.68185502	     -1.35740854	     -0.04018318	      1.14361792	      0.00440114	     -1.73652807	     -1.16233468	      2.15581979	      1.38212903	      0.02412270	      5.45637035	    -12.81784269	     -7.49999987	      0.81326379	     -0.03919258	      2.07495989	      5.84349901	      0.10198830	      0.74010472	    -20.09170832	     -7.49999987	     -3.31670107	     -0.48213291	      1.45166977	      0.90956090	    -10.58616213	     22.04297211	     38.18236944	     72.40105182	      6.80677417	     -9.48382713	     42.50006388	     27.35792299	     60.66465302
      1.81666670	      0.34266644	     -0.67496810	     -1.38561117	     -0.04045301	      1.14528854	      0.00475321	     -1.62963563	     -1.14860945	      2.22141185	      1.40748346	      0.02456522	      5.41471183	    -13.00361353	     -7.49999987	      0.87457739	     -0.03785035	      2.02516296	      5.82519156	      0.10166877	      0.68305150	    -20.05945618	     -7.49999987	     -3.26963382	     -0.48050187	      1.44588775	      1.02233835	    -10.57251597	     22.10817657	     38.03174028	     72.49936975	      6.79511071	     -9.53504159	     42.55649083	     27.39005633	     60.53357523
      1.83333330	      0.48872398	     -0.68051209	     -1.41504920	     -0.04021162	      1.14518955	      0.00452058	     -1.77986565	     -1.14487297	      2.10942698	      1.38188170	      0.02411839	      5.56384927	    -12.68223184	     -7.49999987	      0.71738175	     -0.05365850	      1.61581442	      5.82298391	      0.10163024	      1.19028161	    -19.11242175	     -7.49999987	     -3.53676276	     -0.46164554	      1.53923594	      1.07655249	    -10.53272030	     21.78344298	     37.96002534	     71.21060859	      6.81514748	     -9.45981236	     41.97229944	     27.40139839	     60.30935263
      1.85000000	      0.29197524	     -0.65896055	     -1.28493246	     -0.04379254	      1.14492452	      0.00559914	     -1.50117179	     -1.12255107	      2.16563295	      1.38501851	      0.02417313	      5.51834746	    -12.86568242	     -7.49999987	      0.98410212	     -0.01028295	      2.11559362	      5.74703551	      0.10030469	      0.64403043	    -20.04132414	     -7.49999987	     -3.46193519	     -0.50122980	      1.62582866	      0.85950317	    -10.49503090	     20.58699151	     38.29225239	     77.50079166	      7.15520257	     -9.60578391	     43.16261889	     27.30044665	     60.11169803
      1.86666670	      0.30427584	     -0.63597775	     -1.13476883	     -0.04139257	      1.14004694	      0.00418122	     -1.52297622	     -1.15624709	      2.14844557	      1.36211557	      0.02377340	      5.65668849	    -12.77301748	     -7.49999987	      1.06248862	      0.02964639	      2.29574365	      5.90795197	      0.10311321	      0.56554039	    -20.33002571	     -7.49999987	     -3.46093061	     -0.50703873	      1.40796466	      1.03902297	    -10.57779941	     21.00247387	     38.28357804	     76.47373652	      7.10456521	     -9.63543000	     42.98857509	     27.34822497	     60.04745487
      1.88333330	      0.27439299	     -0.62510671	     -1.10753640	     -0.04286238	      1.14338932	      0.00499029	     -1.42432508	     -1.14276977	      2.26085556	      1.37898812	      0.02406788	      5.83660141	    -12.53920543	     -7.49999987	      1.14720429	      0.02354729	      2.29558169	      5.81461952	      0.10148426	      0.65643258	    -20.20298610	     -7.49999987	     -3.59664601	     -0.55970959	      1.41925367	      1.04204597	    -10.66052253	     21.36889656	     38.59663723	     74.81921043	      7.08130807	     -9.68448538	     42.77821411	     27.41115422	     59.92371390
      1.90000000	      0.22122490	     -0.60836775	     -1.04139825	     -0.04088626	      1.14190264	      0.00442484	     -1.35489835	     -1.16179136	      2.46580504	      1.38970590	      0.02425494	      5.79080264	    -12.72953642	     -7.49999987	      1.27009256	      0.02657545	      2.25455535	      5.91374887	      0.10321439	      0.70059451	    -20.14125612	     -7.49999987	     -3.53492121	     -0.57006197	      1.51617249	      0.91173741	    -10.54010913	     20.47011785	     38.59788825	     77.53426396	      7.17651103	     -9.73706206	     43.30432751	     27.36328869	     59.53106697
      1.91666670	      0.21560692	     -0.62294094	     -1.03663560	     -0.04127397	      1.14212459	      0.00457550	     -1.35739716	     -1.15475604	      2.43916135	      1.43826644	      0.02510248	      5.86070691	    -12.61517248	     -7.49999987	      1.26858486	      0.00938128	      2.22443769	      5.93590193	      0.10360103	      0.71870090	    -20.14683578	     -7.49999987	     -3.53974790	     -0.55217307	      1.53329565	      0.90724346	    -10.60888282	     20.70703253	     38.69799340	     75.93301909	      7.05855155	     -9.72535784	     42.85069954	     27.40095501	     59.43977735
      1.93333330	      0.21931696	     -0.63282539	     -1.05381809	     -0.04088289	      1.14219122	      0.00408745	     -1.37513520	     -1.16454280	      2.47999311	      1.46456166	      0.02556142	      5.91226588	    -12.63040388	     -7.49999987	      1.24944589	      0.01079215	      2.20728361	      5.97579838	      0.10429736	      0.72112080	    -20.22912436	     -7.49999987	     -3.50705389	     -0.51113511	      1.53868159	      0.90780106	    -10.66968120	     20.85163240	     38.78545077	     75.05188214	      6.92867454	     -9.70356998	     42.60155958	     27.45038809	     59.38553741
      1.95000000	      0.13990832	     -0.62860009	     -1.10062558	     -0.04088050	      1.14194117	      0.00423667	     -1.29003231	     -1.18239757	      2.60988003	      1.51016287	      0.02635731	      5.86636118	    -12.81219148	     -7.49999987	      1.32054245	      0.01810403	      2.05616616	      6.04610706	      0.10552448	      0.79526208	    -20.05861094	     -7.49999987	     -3.36760186	     -0.48149550	      1.61457124	      0.83017810	    -10.61421547	     20.34468152	     38.72173756	     77.09676414	      6.87785292	     -9.70277806	     42.68237641	     27.40744223	     59.25249582
